<svg version="1.2" baseProfile="tiny-ps" xmlns="http://www.w3.org/2000/svg" viewBox="0 0 1687 1548" width="1687" height="1548">
	<title>atoss-svg</title>
	<style>
		tspan { white-space:pre }
		.shp0 { fill: #ee7d00 } 
		.shp1 { fill: #1d1d1b } 
	</style>
	<g id="Layer">
	</g>
	<g id="Layer">
	</g>
	<path id="Layer" class="shp0" d="M1193 907.53C1189.02 887.65 1193 875.73 1200.96 863.8C1204.94 859.82 1212.9 835.96 1248.73 808.13C1268.64 792.23 1272.62 792.23 1304.47 772.35C1336.32 752.47 1328.36 752.47 1364.19 728.61C1384.1 716.68 1415.95 696.8 1435.85 676.92C1459.74 657.04 1459.74 653.06 1503.53 613.3C1539.37 581.49 1555.29 569.56 1575.2 565.59C1587.14 561.61 1607.05 557.63 1622.97 569.56C1626.95 569.56 1642.88 581.49 1646.86 601.37C1650.84 617.28 1642.88 629.21 1634.92 649.09C1630.93 657.04 1622.97 668.97 1611.03 684.87C1599.08 696.8 1587.14 708.73 1567.23 724.63C1535.38 744.51 1535.38 744.51 1495.57 768.37C1479.65 780.3 1463.72 792.23 1427.89 816.08C1396.04 839.94 1388.08 847.89 1372.15 859.82C1364.19 863.8 1360.21 867.77 1352.25 871.75C1328.36 887.65 1328.36 887.65 1304.47 903.56C1260.68 935.37 1252.72 935.37 1248.73 939.34C1232.81 943.32 1220.87 947.3 1204.94 943.32C1196.98 931.39 1193 911.51 1193 907.53Z" />
	<g id="Layer">
		<path id="Layer" class="shp1" d="M293.24 987.06C305.18 983.08 404.71 975.13 444.52 963.2C548.04 939.34 567.94 919.46 575.9 911.51C603.77 875.73 611.74 820.06 611.74 812.11C615.72 776.32 607.75 760.42 623.68 732.58C627.66 728.61 639.6 700.78 671.45 688.85C699.32 676.92 727.19 684.87 782.93 704.75C810.8 712.7 810.8 716.68 846.63 728.61C906.35 748.49 906.35 740.54 934.22 756.44C974.03 776.32 997.92 808.13 1009.86 828.01C1025.79 847.89 1033.75 863.8 1049.67 895.61C1069.58 939.34 1069.58 943.32 1085.5 963.2C1101.43 983.08 1121.34 998.99 1141.24 1014.89C1177.07 1042.72 1185.04 1038.75 1200.96 1058.63C1228.83 1090.44 1224.85 1138.15 1224.85 1142.13C1220.87 1185.86 1193 1197.79 1117.35 1277.32C1069.58 1329.01 1037.73 1360.81 1001.9 1412.5C993.94 1424.43 970.05 1460.22 930.24 1496C898.39 1527.81 882.46 1535.76 870.52 1539.74C830.7 1555.64 790.89 1543.72 782.93 1539.74C755.06 1531.79 755.06 1519.86 703.3 1488.05C671.45 1464.19 647.57 1448.29 615.72 1436.36C571.92 1416.48 567.94 1424.43 508.22 1404.55C452.49 1384.67 420.64 1376.72 392.77 1348.89C368.88 1321.05 368.88 1305.15 337.03 1245.51C313.14 1197.79 297.22 1177.91 277.31 1154.06C253.42 1122.25 241.48 1106.34 241.48 1090.44C241.48 1082.48 233.52 1054.65 249.44 1026.82C261.39 995.01 281.29 987.06 293.24 987.06ZM221.57 907.53C201.67 923.44 169.82 911.51 149.91 899.58C133.99 891.63 110.1 883.68 82.23 859.82C38.44 820.06 22.51 776.32 10.57 736.56C-1.38 704.75 -1.38 688.85 2.6 672.94C2.6 664.99 10.57 645.11 30.47 629.21C46.4 621.25 62.32 621.25 78.25 621.25C86.21 621.25 106.12 625.23 130 637.16C137.97 641.13 153.89 653.06 165.84 672.94C181.76 696.8 177.78 704.75 193.7 732.58C209.63 760.42 213.61 756.44 229.54 784.27C237.5 800.18 245.46 816.08 245.46 839.94C245.46 859.82 237.5 875.73 233.52 883.68C229.54 899.58 229.54 903.56 221.57 907.53ZM703.3 601.37C691.36 593.42 679.42 569.56 671.45 545.71C663.49 517.87 671.45 501.97 679.42 450.28C687.38 394.61 683.4 406.54 691.36 346.9C703.3 279.31 707.29 275.33 715.25 223.64C719.23 199.78 719.23 183.88 723.21 152.07C731.17 104.36 735.15 84.47 739.14 80.5C747.1 52.67 759.04 28.81 782.93 12.9C790.89 8.93 806.82 -3 826.72 0.98C846.63 4.95 858.57 16.88 862.55 24.83C866.54 32.79 870.52 40.74 874.5 48.69C886.44 80.5 878.48 108.33 878.48 116.28C866.54 175.93 854.59 191.83 842.65 247.5C838.67 267.38 842.65 255.45 830.7 338.95C822.74 378.71 822.74 390.64 818.76 414.49C814.78 458.23 814.78 458.23 810.8 486.06C802.84 549.68 786.91 569.56 782.93 577.52C774.97 585.47 763.02 601.37 747.1 605.35C727.19 605.35 715.25 609.32 703.3 601.37ZM910.33 661.01C886.44 645.11 886.44 617.28 882.46 605.35C882.46 593.42 882.46 569.56 914.31 505.95C934.22 462.21 938.2 466.18 954.12 430.4C978.01 382.69 970.05 382.69 989.95 338.95C997.92 319.07 1013.84 291.23 1029.77 263.4C1033.75 255.45 1037.73 251.47 1041.71 243.52C1053.65 227.62 1057.64 219.66 1069.58 195.81C1081.52 171.95 1085.5 160.02 1097.45 132.19C1105.41 116.28 1109.39 108.33 1117.35 92.43C1125.32 76.52 1129.3 72.55 1133.28 72.55C1149.2 60.62 1165.13 60.62 1169.11 60.62C1177.07 60.62 1193 60.62 1208.92 68.57C1228.83 80.5 1232.81 96.4 1236.79 104.36C1244.75 128.21 1240.77 152.07 1232.81 167.97C1220.87 211.71 1200.96 239.54 1181.05 275.33C1181.05 275.33 1161.15 315.09 1121.34 390.64C1081.52 466.18 1077.54 482.09 1069.58 494.02C1045.69 541.73 1033.75 565.59 1033.75 573.54C1021.8 601.37 1021.8 617.28 1005.88 637.16C997.92 649.09 981.99 664.99 958.1 668.97C954.12 668.97 930.24 676.92 910.33 661.01ZM1300.49 1062.6C1296.51 1046.7 1300.49 1034.77 1304.47 1026.82C1308.45 1018.87 1316.42 1006.94 1332.34 995.01C1352.25 979.11 1368.17 975.13 1388.08 967.18C1404 959.22 1431.87 947.3 1455.76 935.37C1459.74 931.39 1467.7 927.42 1519.46 887.65C1555.29 859.82 1567.23 851.87 1587.14 839.94C1618.99 824.04 1634.92 824.04 1642.88 828.01C1658.8 831.99 1666.77 839.94 1670.75 843.92C1674.73 847.89 1686.67 859.82 1686.67 875.73C1686.67 891.63 1682.69 899.58 1674.73 911.51C1666.77 923.44 1658.8 935.37 1634.92 955.25C1615.01 971.15 1595.1 983.08 1579.18 991.03C1547.33 1006.94 1547.33 1006.94 1511.5 1026.82C1479.65 1042.72 1479.65 1046.7 1447.8 1062.6C1423.91 1074.53 1423.91 1074.53 1404 1086.46C1384.1 1098.39 1384.1 1098.39 1372.15 1102.37C1368.17 1102.37 1344.28 1110.32 1324.38 1094.41C1320.4 1090.44 1304.47 1082.48 1300.49 1062.6ZM1081.52 760.42C1065.6 736.56 1069.58 708.73 1069.58 704.75C1073.56 684.87 1081.52 672.94 1117.35 641.13C1165.13 597.4 1169.11 593.42 1196.98 565.59C1208.92 553.66 1224.85 533.78 1252.72 501.97C1272.62 478.11 1284.57 466.18 1296.51 450.28C1336.32 402.57 1332.34 398.59 1352.25 374.73C1376.13 350.88 1400.02 327.02 1435.85 327.02C1443.82 327.02 1463.72 327.02 1479.65 338.95C1495.57 354.85 1499.55 374.73 1499.55 382.69C1499.55 402.57 1495.57 418.47 1487.61 430.4C1479.65 446.3 1471.68 454.26 1455.76 474.14C1435.85 494.02 1407.98 521.85 1392.06 537.75C1392.06 537.75 1388.08 541.73 1380.12 549.68C1368.17 561.61 1364.19 573.54 1304.47 641.13C1288.55 661.01 1268.64 680.9 1232.81 720.66C1212.9 740.54 1193 764.39 1157.17 780.3C1137.26 788.25 1121.34 792.23 1109.39 788.25C1097.45 776.32 1085.5 764.39 1081.52 760.42Z" />
	</g>
</svg>